<?xml version="1.0" encoding="utf-8"?>
<!-- Generator: Adobe Illustrator 16.0.4, SVG Export Plug-In . SVG Version: 6.00 Build 0)  -->
<!DOCTYPE svg PUBLIC "-//W3C//DTD SVG 1.1//EN" "http://www.w3.org/Graphics/SVG/1.1/DTD/svg11.dtd">
<svg version="1.1" xmlns="http://www.w3.org/2000/svg" xmlns:xlink="http://www.w3.org/1999/xlink" x="0px" y="0px" width="399.5px"
	 height="300px" viewBox="0 0 399.5 300" enable-background="new 0 0 399.5 300" xml:space="preserve">
<g id="Layer_1" display="none">
	
		<image display="inline" overflow="visible" width="2448" height="3264" xlink:href="IMG_1962.jpg"  transform="matrix(0.158 0 0 0.158 13.6455 -136.9414)">
	</image>
</g>
<g id="Layer_11">
	<rect fill="#131743" width="399.5" height="300"/>
</g>
<g id="Layer_6">
	<path fill="#1E1D56" d="M132.895,219.666c0,0-18.229,10.105-21.229,13.105s-8.667,7,3,7s33.453-3.024,37.071-7.843
		S132.895,219.666,132.895,219.666z"/>
	<path fill="#1E1D56" d="M247.98,221.613c0,0,18.229,10.105,21.229,13.105s8.668,7-3,7c-11.666,0-33.451-3.024-37.07-7.843
		S247.98,221.613,247.98,221.613z"/>
</g>
<g id="back">
	<path fill="#1E1A4E" d="M136.872,144.001c-13.977,30.804,25.371,62.985,51.604,62.985c26.233,0,71.902-36.256,53.523-64.653
		C211.366,95,214.71,84.486,188.477,84.486C162.243,84.486,160.266,92.441,136.872,144.001z"/>
</g>
<g id="jaw">
	<path fill="#2F3875" d="M125.878,215c0,0,21.72,28.75,40.725,36.333c12.531,5,25.846,4.667,40.725,0
		c14.88-4.667,43.467-34.667,43.467-34.667L125.878,215z"/>
</g>
<g id="body">
	<path fill="#1E1D56" d="M194.5,120.865c0,0-51.333,16.635-61.167,26.468s-7,30.001-8.667,36.667s-10.333,12.334-10,20
		s13,15,18.667,16s50,17.334,52.667,20c0,0,27.332-12.666,40.666-15s34.987-6.667,34.498-19.334
		c-0.456-11.813-8.215-12.407-8.215-22.174S253,149.333,242,142.333S194.5,120.865,194.5,120.865z"/>
</g>
<g id="eyes">
	<path fill="#7B7D32" d="M144.667,179.333c0,14.176-4.328,25.667-9.667,25.667c-5.339,0-15-11.491-15-25.667s9.662-25.667,15-25.667
		C140.338,153.666,144.667,165.157,144.667,179.333z"/>
	<path fill="#7B7D32" d="M235,179.333c0,14.176,4.328,25.667,9.666,25.667c5.339,0,15-11.491,15-25.667s-9.661-25.667-15-25.667
		C239.328,153.666,235,165.157,235,179.333z"/>
	<ellipse cx="129.775" cy="174.972" rx="7.097" ry="12.167"/>
	<ellipse fill="#BABABA" cx="132.721" cy="172.5" rx="2.946" ry="4.166"/>
	<ellipse cx="247.333" cy="174.972" rx="7.097" ry="12.167"/>
	<ellipse fill="#BABABA" cx="250.278" cy="172.5" rx="2.946" ry="4.166"/>
</g>
<g id="Layer_7">
	<path fill="#2C2E6B" d="M160.281,133.293c0,0-1.614,22.54,28.552,22.54s35.157-22.54,35.157-22.54l-14.161-6.142L170.833,129
		L160.281,133.293z"/>
	<path fill="#373F89" d="M163.441,132.007c0,0-0.838,18.993,24.245,18.993s31.056-19.983,31.056-19.983l-9.767-4.225l-35.99,1.216
		L163.441,132.007z"/>
	<path fill="#414294" d="M168.514,129.952c0,0,0.086,15.785,19.912,15.785s24.387-17.284,24.387-17.284l-8.71-3.688l-27.507,1.713
		L168.514,129.952z"/>
</g>
<g id="light_ball">
	<circle fill="#E7E620" cx="188.833" cy="122.5" r="21.5"/>
	<circle fill="#FAF075" cx="196.582" cy="115.167" r="8.668"/>
	<circle fill="#FFFFFF" cx="200.667" cy="112.583" r="4.583"/>
</g>
<g id="Layer_9" display="none">
	
		<image display="inline" overflow="visible" opacity="0.3" width="1500" height="1161" xlink:href="stock-vector-vector-water-ripples-fading-into-the-distance-4326745.jpg"  transform="matrix(0.24 0 0 0.24 20.6665 29.0132)">
	</image>
</g>
<g id="Layer_10">
	<path opacity="0.5" fill="#2F3F89" d="M161.8,176.713c-4.336,0.304-9.531,0.407-9.667,2.334s13.2,3,19.267,4
		s36.067,1.667,43.067,3.667s15.668,2.195,28,0s17.643-5.456,7.154-6.062s-23.488-2.94-33.488-3.939S164.501,176.523,161.8,176.713z
		"/>
	<path opacity="0.5" fill="#2F3F89" d="M80.803,260.242c-4.336,0.304-9.531,0.407-9.667,2.334s13.2,3,19.267,4
		s36.067,1.667,43.067,3.667s15.668,2.195,28,0s17.643-5.456,7.154-6.062s-23.488-2.94-33.488-3.939S83.504,260.053,80.803,260.242z
		"/>
	<path opacity="0.5" fill="#2F3F89" d="M65.747,140.193c-4.336,0.304-9.531,0.407-9.667,2.334s13.2,3,19.267,4
		s36.067,1.667,43.067,3.667s15.668,2.195,28,0s17.643-5.456,7.154-6.062s-23.488-2.94-33.488-3.939S68.448,140.004,65.747,140.193z
		"/>
	<path opacity="0.5" fill="#2F3F89" d="M155.5,189.75c-6.161-0.336-35.436-2-40.843-1.25S90.5,188.066,95.5,190.908
		s14.159,0.892,22.387,4.18s20.174,0.218,31.863,1.662s24-1.25,29-1.75S180.753,191.127,155.5,189.75z"/>
	<path opacity="0.5" fill="#2F3F89" d="M228.744,203c0,0-68.744-2-74.494-1.5s-23.508-0.75-15.504,1.5s26.504,3,39.754,5.75
		s25.496,2.41,51.5,4.5s61.25-4,73-3.25S283.988,202.25,228.744,203z"/>
	<path opacity="0.5" fill="#2F3F89" d="M113.5,206.986c0,0-22.75-2.377-15.75,0.568s7.224,7.854,14.25,6.135s7.952-1.572,20.721,0
		s74.279,7.537,99.529,7.924s-35-8.863-45.5-9.863S113.5,206.986,113.5,206.986z"/>
	<path opacity="0.5" fill="#2F3F89" d="M135.071,174.972c0,0-4.846,2.36-15.88,1.694c-11.033-0.666-1.364-2.916-28.109-2.916
		s-43.822,4.438-28.803,5.094c15.019,0.656,39.501-1.178,49.583,0.489S152.314,176.443,135.071,174.972z"/>
	<path opacity="0.5" fill="#2F3F89" d="M114.657,165c0,0-26.907-1.25-14.657,1.25s22.916,2.416,32.333,2.083
		s27.139-1.077,37.153,0.17s48.096-5.658,6.514-5.698C134.417,162.765,114.657,165,114.657,165z"/>
	<path opacity="0.5" fill="#2F3F89" d="M86.062,197.441c0,0-31-2.582-26.333,1.876s7.666,8.606,14.333,6.032
		s19.667-2.951,23.667-3.93S88.36,197.613,86.062,197.441z"/>
	<path opacity="0.5" fill="#2F3F89" d="M293.334,261.001c-1.648-0.239-84.002-22.669-126.001-21.001
		c-41.999,1.668-104.755,14.584-59.71,14.959s135.377,6.709,159.711,9.709S314,264.001,293.334,261.001z"/>
	<path opacity="0.5" fill="#2F3F89" d="M294.001,190.908c0,0-40.845-1.842-47.756,0.792s-2.072,2.622,11.342,3.128
		s13.747,0.513,24.414,2.343s17.628-1.052,19.48-3.444S297.659,191.055,294.001,190.908z"/>
	<path opacity="0.5" fill="#2F3F89" d="M262.48,138.895c0,0-30.809-1.842-36.021,0.792s-1.562,2.622,8.555,3.128
		c10.118,0.506,10.369,0.513,18.415,2.343s13.296-1.052,14.693-3.444S265.239,139.041,262.48,138.895z"/>
	<path opacity="0.5" fill="#2F3F89" d="M297.334,168.333c0,0,0-4.21-9.333-2.604s-25.334-0.09-10.667,2.925
		s18.668,2.015,22.334,2.348S299.334,167.332,297.334,168.333z"/>
	<path opacity="0.5" fill="#2F3F89" d="M358.302,275.635c0,0,0-4.21-9.333-2.604s-25.334-0.09-10.667,2.925
		s18.668,2.015,22.334,2.348S360.302,274.634,358.302,275.635z"/>
	<path opacity="0.5" fill="#2F3F89" d="M374.441,138.039c0,0-12.497-6.334-34.875-4.166s-34.047,1.332-40.379,1.25
		s-9.634,1.952,25.99,2.916s43.81,4.531,47.41,3.767S377.612,139.301,374.441,138.039z"/>
	<path opacity="0.5" fill="#2F3F89" d="M245.99,160.077c-1.99,0.248-43.949,5.307-50.969,8.115s3.377,1.446,16.345,0.461
		s23.854-3.655,38.911-0.32s27.391,1.79,17.391-2.604S250.934,159.461,245.99,160.077z"/>
	<path opacity="0.5" fill="#2F3F89" d="M37.996,206.194c-1.115,0.248-24.634,5.307-28.569,8.115
		c-3.935,2.809,1.893,1.446,9.162,0.461s13.371-3.655,21.811-0.32s15.353,1.79,9.748-2.604S40.767,205.578,37.996,206.194z"/>
	<path opacity="0.5" fill="#2F3F89" d="M237.848,154.329c0,0-25.155-3.451-32.089-0.683c-6.933,2.768-37.144,0.296-19.555,3.883
		c17.589,3.587,7.672-0.143,33.403,0.102c25.731,0.243,34.47-0.301,27.991-1.735C241.119,154.462,237.848,154.329,237.848,154.329z"
		/>
	<path opacity="0.5" fill="#2F3F89" d="M216.463,275.875c0,0-25.398-7.37-32.219-2.772c-6.82,4.597-37.241-1.274-19.425,5.973
		c17.815,7.248,7.688,0.118,33.508,1.802c25.821,1.681,34.559,1.135,27.992-1.736C219.75,276.271,216.463,275.875,216.463,275.875z"
		/>
	<path opacity="0.5" fill="#2F3F89" d="M201.83,37.598c0,0-25.399-7.37-32.219-2.772c-6.82,4.597-37.241-1.274-19.425,5.973
		c17.815,7.248,7.688,0.118,33.508,1.802c25.821,1.681,34.56,1.135,27.991-1.736C205.117,37.993,201.83,37.598,201.83,37.598z"/>
	<path opacity="0.5" fill="#2F3F89" d="M143.334,221.613c0,0-46.667-5.945-62.667-4.945s-24.333,3.999-7.333,7.666
		s46.439,4.333,59.386,4S166.001,226.226,143.334,221.613z"/>
	<path opacity="0.5" fill="#2F3F89" d="M98.749,167.792c0,0-22.833-2.738-30.662-2.277c-7.828,0.46-11.905,1.841-3.588,3.53
		c8.318,1.688,22.722,1.995,29.057,1.842S109.839,169.916,98.749,167.792z"/>
	<path opacity="0.5" fill="#2F3F89" d="M371.206,173.351c0,0-22.833-2.738-30.661-2.277c-7.828,0.46-11.906,1.841-3.588,3.53
		c8.317,1.688,22.722,1.995,29.057,1.842C372.348,176.292,382.297,175.475,371.206,173.351z"/>
	<path opacity="0.5" fill="#2F3F89" d="M251.43,112.183c0,0-22.834-2.738-30.662-2.277c-7.828,0.46-11.905,1.841-3.588,3.53
		c8.318,1.688,22.723,1.995,29.057,1.842S262.52,114.307,251.43,112.183z"/>
	<path opacity="0.5" fill="#2F3F89" d="M296.001,239.771c0,0-32.368,1.332-46.351,1.947s-20.395,2.616,1.145,4.949
		s40.873,2.999,62.206,1.666s34.333-8.792,19.333-8.562S301.668,237.875,296.001,239.771z"/>
	<path opacity="0.5" fill="#2F3F89" d="M192.759,222.482c-26.724,2.023-54.561,8.638-28.826,8.078s30.065,1.44,43.067,2.44
		s58.893,3.147,69.668,1.152S200.51,221.896,192.759,222.482z"/>
	<path opacity="0.5" fill="#2F3F89" d="M287.817,218.001c0,0-39.149-0.108-30.482,3.612s9.181,7.721,20.257,4.388
		s16.036-1.999,23.89-0.333s16.154-11.56,4.004-9.113S292.637,217.974,287.817,218.001z"/>
	<path opacity="0.5" fill="#2F3F89" d="M362.246,213.808c0,0-48.301-0.169-37.607,5.646c10.692,5.815,11.326,12.066,24.992,6.857
		c13.665-5.209,19.784-3.124,29.474-0.521s19.931-18.065,4.94-14.242C369.054,215.371,368.192,213.765,362.246,213.808z"/>
	<path opacity="0.5" fill="#2F3F89" d="M79.735,235.229c0,0-39.149-0.107-30.482,3.613s9.181,7.721,20.257,4.387
		c11.076-3.332,16.036-1.998,23.89-0.332s16.154-11.561,4.004-9.113C85.252,236.229,84.554,235.201,79.735,235.229z"/>
	<path opacity="0.5" fill="#2F3F89" d="M158.871,105.592c4.336,0.304,9.531,0.407,9.667,2.334c0.135,1.927-13.201,3-19.268,4
		s-36.066,1.667-43.066,3.667s-15.668,2.195-28,0s-17.643-5.456-7.154-6.062s23.488-2.94,33.488-3.939
		S156.168,105.402,158.871,105.592z"/>
	<path opacity="0.5" fill="#2F3F89" d="M266.077,85.336c6.161-0.336,35.436-2,40.843-1.25s24.157-0.434,19.157,2.408
		s-14.159,0.892-22.387,4.18s-20.174,0.218-31.863,1.662s-24-1.25-29-1.75S240.824,86.713,266.077,85.336z"/>
	<path opacity="0.5" fill="#2F3F89" d="M165.283,77.636c0,0,68.744-2,74.494-1.5s23.508-0.75,15.504,1.5s-26.504,3-39.754,5.75
		s-25.496,2.41-51.5,4.5s-61.25-4-73-3.25S110.039,76.886,165.283,77.636z"/>
	<path opacity="0.5" fill="#2F3F89" d="M242.625,94.105c0,0,22.871-0.391,15.642,1.935s-7.88,7.197-14.729,4.873
		s-7.784-2.257-20.643-1.801c-12.857,0.457-74.653,1.053-99.841-0.756c-25.188-1.81,35.638-5.788,46.185-5.872
		C179.786,92.401,242.625,94.105,242.625,94.105z"/>
	<path opacity="0.5" fill="#2F3F89" d="M288.767,180.506c0,0,3.027,2.359,9.921,1.693c6.893-0.666,0.852-2.916,17.561-2.916
		s27.378,4.438,17.995,5.094s-24.679-1.178-30.978,0.49C296.969,186.533,277.993,181.977,288.767,180.506z"/>
	<path opacity="0.5" fill="#2F3F89" d="M266.294,147.892c0,0,40.846-1.842,47.756,0.792c6.912,2.634,2.072,2.623-11.342,3.128
		s-13.746,0.512-24.414,2.342c-10.666,1.83-17.627-1.051-19.48-3.444C256.962,148.318,262.636,148.039,266.294,147.892z"/>
	<path opacity="0.5" fill="#2F3F89" d="M199.696,59.935c0,0,7.312-9.25,17.747-4.472c10.435,4.778,16.262,4.164,19.352,4.417
		s4.292,3.667-13.189,3.035c-17.479-0.632-22.155,4.508-23.751,3.083C198.258,64.572,197.909,61.738,199.696,59.935z"/>
	<path opacity="0.5" fill="#2F3F89" d="M244.15,271.466c0,0,6.776-5.617,17.413-2.25c10.639,3.369,16.403,3.171,19.489,3.433
		c3.088,0.262,4.467,2.463-12.957,1.488c-17.423-0.974-21.798,2.128-23.463,1.172C242.968,274.354,242.469,272.548,244.15,271.466z"
		/>
	<path opacity="0.5" fill="#2F3F89" d="M226.586,119.996c0,0,46.666-5.945,62.666-4.945s24.334,3.999,7.334,7.666
		s-46.439,4.333-59.387,4S203.918,124.608,226.586,119.996z"/>
	<path opacity="0.5" fill="#2F3F89" d="M10.57,186.27c0,0,32.265-5.945,43.327-4.945c11.062,1,16.824,3.999,5.07,7.666
		c-11.753,3.667-32.108,4.333-41.059,4C8.957,192.657-5.103,190.882,10.57,186.27z"/>
	<path opacity="0.5" fill="#2F3F89" d="M64.888,125.175c19.713,2.023,40.246,8.638,21.263,8.078s-22.177,1.44-31.768,2.44
		s-43.441,3.147-51.39,1.152S59.171,124.588,64.888,125.175z"/>
	<path opacity="0.5" fill="#2F3F89" d="M131.707,123.403c0,0,39.149-0.108,30.482,3.612s-9.181,7.721-20.257,4.388
		s-16.036-1.999-23.89-0.333s-16.154-11.56-4.004-9.113S126.887,123.375,131.707,123.403z"/>
	<path opacity="0.5" fill="#2F3F89" d="M149.755,61.92c0,0,39.149-0.108,30.482,3.612s-9.181,7.721-20.257,4.388
		s-16.036-1.999-23.89-0.333s-16.154-11.56-4.004-9.113S144.936,61.893,149.755,61.92z"/>
</g>
</svg>
